              Monster's Ball [Unrated DC].2001.BRRip.XviD.AC3[5.1]-VLiS

                       
                        http://www.imdb.com/title/tt0285742/



Movie Title: Monster's Ball

Director: Marc Forster

Cast: Billy Bob Thornton, Halle Berry, Heath Ledger, Peter Boyle




              Language: English - Optional English subtitles included



General
Format                           : AVI
Format/Info                      : Audio Video Interleave
File size                        : 1.30 GiB
Duration                         : 1h 52mn
Overall bit rate                 : 1 652 Kbps
Writing application              : VirtualDubMod 1.5.10.2 (build 2542/release)
Writing library                  : VirtualDubMod build 2542/release

Video
Format                           : MPEG-4 Visual
Format profile                   : Streaming Video@L1
Format settings, BVOP            : Yes
Format settings, QPel            : No
Format settings, GMC             : No warppoints
Format settings, Matrix          : Default (MPEG)
Codec ID                         : XVID
Codec ID/Hint                    : XviD
Duration                         : 1h 52mn
Bit rate                         : 1 195 Kbps
Width                            : 720 pixels
Height                           : 304 pixels
Display aspect ratio             : 2.35
Frame rate                       : 23.976 fps
Resolution                       : 24 bits
Colorimetry                      : 4:2:0
Scan type                        : Progressive
Bits/(Pixel*Frame)               : 0.228
Stream size                      : 963 MiB (72%)
Writing library                  : XviD 1.2.1 (UTC 2008-12-04)

Audio
Format                           : AC-3
Format/Info                      : Audio Coding 3
Codec ID                         : 2000
Duration                         : 1h 52mn
Bit rate mode                    : Constant
Bit rate                         : 448 Kbps
Channel(s)                       : 6 channels
Channel positions                : Front: L C R, Surround: L R, LFE
Sampling rate                    : 48.0 KHz
Stream size                      : 361 MiB (27%)
Alignment                        : Split accross interleaves
Interleave, duration             : 42 ms (1.00 video frame)
Interleave, preload duration     : 500 ms


Source: Monsters.Ball.2001.720p.BluRay.x264-SiNNERS


Screenshots: 
http://leetleech.org/images/13255890009632508217.png 
http://leetleech.org/images/38372873230938973162.png 
http://leetleech.org/images/85359847834992638724.png 
http://leetleech.org/images/74737749867035910709.png 
http://leetleech.org/images/10997360118513746706.png



                               Encoded By VLiS